<svg xmlns="http://www.w3.org/2000/svg" viewBox="0 0 32 40" x="0px" y="0px"><title>32 settings user, settingsl, business, application settings, technology</title><g data-name="32 settings user, settingsl, business, application settings, technology"><path d="M28.25,12H25.88l-.06-.16,1.67-1.68a1.75,1.75,0,0,0,0-2.47L24.31,4.51a1.75,1.75,0,0,0-2.47,0L20.16,6.18,20,6.12V3.75A1.75,1.75,0,0,0,18.25,2h-4.5A1.75,1.75,0,0,0,12,3.75V6.12l-.16.06L10.16,4.51a1.74,1.74,0,0,0-2.47,0L4.51,7.69a1.75,1.75,0,0,0,0,2.47l1.67,1.68L6.12,12H3.75A1.75,1.75,0,0,0,2,13.75v4.5A1.75,1.75,0,0,0,3.75,20H6.12l.06.16L4.51,21.84a1.75,1.75,0,0,0,0,2.47l3.18,3.18a1.75,1.75,0,0,0,2.47,0l1.68-1.67.16.07v2.36A1.75,1.75,0,0,0,13.75,30h4.5A1.75,1.75,0,0,0,20,28.25V25.89l.16-.07,1.68,1.67a1.75,1.75,0,0,0,2.47,0l3.18-3.18a1.75,1.75,0,0,0,0-2.47l-1.67-1.68.07-.16h2.36A1.76,1.76,0,0,0,30,18.25v-4.5A1.75,1.75,0,0,0,28.25,12ZM28,18H25.22a1,1,0,0,0-.93.62L23.72,20a1,1,0,0,0,.21,1.09l2,2L23.07,25.9l-2-2A1,1,0,0,0,20,23.72l-1.39.57a1,1,0,0,0-.62.93V28H14V25.22a1,1,0,0,0-.62-.93L12,23.72a1,1,0,0,0-1.09.21l-2,2L6.1,23.07l2-2A1,1,0,0,0,8.29,20l-.58-1.39A1,1,0,0,0,6.79,18H4V14H6.79a1,1,0,0,0,.92-.62L8.29,12a1,1,0,0,0-.22-1.09l-2-2L8.93,6.1l2,2A1,1,0,0,0,12,8.29l1.39-.58A1,1,0,0,0,14,6.79V4h4V6.79a1,1,0,0,0,.62.92L20,8.29a1,1,0,0,0,1.09-.22l2-2L25.9,8.93l-2,2A1,1,0,0,0,23.71,12l.58,1.39a1,1,0,0,0,.92.62H28ZM16,9a7,7,0,1,0,7,7A7,7,0,0,0,16,9ZM14,20.58V20a1,1,0,0,1,1-1h2a1,1,0,0,1,1,1v.58a5,5,0,0,1-4,0ZM15,15a1,1,0,1,1,1,1A1,1,0,0,1,15,15Zm4.86,4.14A3,3,0,0,0,18,17.19,3,3,0,0,0,19,15a3,3,0,0,0-6,0,3,3,0,0,0,1,2.19,3,3,0,0,0-1.83,1.95,5,5,0,1,1,7.72,0Z"/></g></svg>