<svg xmlns="http://www.w3.org/2000/svg" xmlns:xlink="http://www.w3.org/1999/xlink" version="1.1" x="0px" y="0px" viewBox="0 0 100 125" enable-background="new 0 0 100 100" xml:space="preserve"><g><path d="M20.003,20.001c-10.582,10.581-10.581,27.809,0,38.39c8.71,8.71,21.906,10.246,32.21,4.619l20.574,21.774   c1.98,1.978,5.208,1.991,7.199,0l4.8-4.799c1.979-1.979,1.979-5.219,0-7.198L63.011,52.213c5.626-10.305,4.091-23.502-4.619-32.212   C47.811,9.42,30.583,9.42,20.003,20.001z M82.386,75.186c0.661,0.661,0.661,1.741,0,2.401l-4.799,4.798   c-0.661,0.659-1.739,0.659-2.4,0l-17.599-18.8c1.14-0.875,2.219-1.811,3.202-2.795c0.973-0.973,1.907-2.052,2.784-3.215   L82.386,75.186z M60.49,49.692c-1.104,2.28-2.614,4.415-4.498,6.299s-4.02,3.396-6.298,4.499   c-8.865,4.379-19.913,2.879-27.292-4.499c-9.261-9.262-9.262-24.329,0-33.591c9.261-9.261,24.329-9.261,33.59,0   C63.37,29.778,64.869,40.828,60.49,49.692z"/><path d="M25.998,26c-7.277,7.277-7.277,19.116,0,26.394c7.276,7.276,19.116,7.276,26.393,0c7.275-7.277,7.275-19.117,0-26.394   C45.114,18.724,33.274,18.724,25.998,26z M49.991,49.993c-5.953,5.954-15.641,5.954-21.594,0c-5.953-5.953-5.953-15.64,0-21.593   c5.954-5.954,15.641-5.954,21.594,0C55.944,34.353,55.944,44.04,49.991,49.993z"/></g></svg>